<?xml version="1.0" encoding="UTF-8"?>
<svg width="941px" height="471px" viewBox="0 0 941 471" version="1.1" xmlns="http://www.w3.org/2000/svg" xmlns:xlink="http://www.w3.org/1999/xlink">
    <!-- Generator: Sketch 51.3 (57544) - http://www.bohemiancoding.com/sketch -->
    <title>Group 3</title>
    <desc>Created with Sketch.</desc>
    <defs></defs>
    <g id="Page-1" stroke="none" stroke-width="1" fill="none" fill-rule="evenodd">
        <g id="One-World-Strong---Home-FULL" transform="translate(-246.000000, -207.000000)">
            <g id="Group-3" transform="translate(246.000000, 206.000000)">
                <g id="Group">
                    <polyline id="Fill-1" fill="#74C3B7" points="142.037736 4.43445693 170.431568 4.43445693 170.431568 16.7345591 213.514187 59.5416332 213.514187 4.43445693 241.908019 4.43445693 241.908019 126.382022 213.514187 126.382022 213.514187 102.914052 170.431568 60.1069775 170.431568 126.382022 142.037736 126.382022 142.037736 4.43445693"></polyline>
                    <g id="Group-5" fill="#74C3B7">
                        <polyline id="Fill-2" points="258.880894 4.32784519 358.110451 4.32784519 358.110451 32.5561726 287.092563 32.5561726 287.092563 51.7285736 334.465318 51.7285736 334.465318 79.8759194 288.233419 79.8759194 288.069995 99.0483203 358.110451 99.0483203 358.110451 127.276648 258.880894 127.276648 258.880894 4.32784519"></polyline>
                        <path d="M64.684815,27.8000592 C85.6280025,27.8000592 102.666132,44.8482497 102.666132,65.8022465 C102.666132,86.7562433 85.6280025,103.802876 64.684815,103.802876 C43.743184,103.802876 26.7066107,86.7562433 26.7066107,65.8022465 C26.7066107,44.8482497 43.743184,27.8000592 64.684815,27.8000592 M64.684815,1.07923596 C28.9618633,1.07923596 0,30.0566435 0,65.8022465 C0,101.547849 28.9618633,130.525257 64.684815,130.525257 C100.41088,130.525257 129.371186,101.547849 129.371186,65.8022465 C129.371186,30.0566435 100.41088,1.07923596 64.684815,1.07923596" id="Fill-4"></path>
                    </g>
                    <polyline id="Fill-6" fill="#368340" points="6.65801887 155.205993 34.6462576 155.205993 34.6462576 249.191943 53.6555927 249.191943 53.6555927 155.205993 81.7241243 155.205993 81.7241243 249.191943 100.733459 249.191943 100.733459 155.205993 128.721698 155.205993 128.721698 277.153558 6.65801887 277.153558 6.65801887 155.205993"></polyline>
                    <path d="M279.636792,155.205993 L379.507075,155.205993 L379.507075,230.138839 L348.897775,230.138839 L379.507075,260.401755 L379.507075,277.153558 L351.112798,277.153558 L308.03107,234.346484 L308.03107,277.153558 L279.636792,277.153558 L279.636792,155.205993 Z M308.03107,202.220712 L351.112798,202.220712 L351.112798,183.204442 L308.03107,183.204442 L308.03107,202.220712 Z" id="Fill-7" fill="#368340"></path>
                    <polyline id="Fill-8" fill="#368340" points="395.042453 155.205993 423.4127 155.205993 423.4127 249.191943 494.912736 249.191943 494.912736 277.153558 395.042453 277.153558 395.042453 155.205993"></polyline>
                    <path d="M510.448113,155.205993 L587.586143,155.205993 L610.318396,177.620507 L610.318396,254.737498 L587.586143,277.153558 L510.448113,277.153558 L510.448113,155.205993 Z M538.8415,249.155109 L581.92501,249.155109 L581.92501,183.204442 L538.8415,183.204442 L538.8415,249.155109 Z" id="Fill-9" fill="#368340"></path>
                    <path d="M206.398585,177.318793 C227.235332,177.318793 244.188129,194.255259 244.188129,215.071935 C244.188129,235.888611 227.235332,252.821982 206.398585,252.821982 C185.561837,252.821982 168.609041,235.888611 168.609041,215.071935 C168.609041,194.255259 185.561837,177.318793 206.398585,177.318793 M206.398585,150.771536 C170.852999,150.771536 142.037736,179.559041 142.037736,215.071935 C142.037736,250.583281 170.852999,279.370787 206.398585,279.370787 C241.944171,279.370787 270.759434,250.583281 270.759434,215.071935 C270.759434,179.559041 241.944171,150.771536 206.398585,150.771536" id="Fill-10" fill="#368340"></path>
                    <path d="M763.454379,325.870644 C784.291126,325.870644 801.243923,342.807518 801.243923,363.624695 C801.243923,384.441871 784.291126,401.378745 763.454379,401.378745 C742.617631,401.378745 725.663286,384.441871 725.663286,363.624695 C725.663286,342.807518 742.617631,325.870644 763.454379,325.870644 M763.454379,299.325843 C727.905695,299.325843 699.091981,328.112494 699.091981,363.624695 C699.091981,399.136895 727.905695,427.925094 763.454379,427.925094 C798.999965,427.925094 827.813679,399.136895 827.813679,363.624695 C827.813679,328.112494 798.999965,299.325843 763.454379,299.325843" id="Fill-11" fill="#75BA4A"></path>
                    <polyline id="Fill-12" fill="#75BA4A" points="6.65801887 303.7603 25.1231571 303.7603 56.8806256 334.751952 88.3905764 303.7603 106.528302 303.7603 106.528302 425.707865 78.1326885 425.707865 78.1326885 360.809534 59.9996627 378.692067 53.1897912 378.692067 35.0504991 360.809534 35.0504991 425.707865 6.65801887 425.707865 6.65801887 303.7603"></polyline>
                    <path d="M122.063679,303.7603 L221.933962,303.7603 L221.933962,425.707865 L193.538349,425.707865 L193.538349,402.242448 L150.45616,402.242448 L150.45616,425.707865 L122.063679,425.707865 L122.063679,303.7603 Z M150.45616,374.241516 L193.538349,374.241516 L193.538349,331.758142 L150.45616,331.758142 L150.45616,374.241516 Z" id="Fill-13" fill="#75BA4A"></path>
                    <path d="M239.688679,303.7603 L339.558962,303.7603 L339.558962,378.692067 L308.946655,378.692067 L339.558962,408.956121 L339.558962,425.707865 L311.163349,425.707865 L268.08116,382.90163 L268.08116,425.707865 L239.688679,425.707865 L239.688679,303.7603 Z M268.08116,350.776098 L311.163349,350.776098 L311.163349,331.759687 L268.08116,331.759687 L268.08116,350.776098 Z" id="Fill-14" fill="#75BA4A"></path>
                    <path d="M352.875,303.7603 L452.745283,303.7603 L452.745283,425.707865 L424.34967,425.707865 L424.34967,402.242448 L381.26748,402.242448 L381.26748,425.707865 L352.875,425.707865 L352.875,303.7603 Z M381.26748,374.241516 L424.34967,374.241516 L424.34967,331.758142 L381.26748,331.758142 L381.26748,374.241516 Z" id="Fill-15" fill="#75BA4A"></path>
                    <polyline id="Fill-16" fill="#75BA4A" points="470.5 303.7603 570.370283 303.7603 570.370283 331.759687 535.163232 331.759687 535.163232 425.707865 506.853779 425.707865 506.853779 331.759687 470.5 331.759687 470.5 303.7603"></polyline>
                    <polyline id="Fill-17" fill="#75BA4A" points="585.90566 301.543071 614.277281 301.543071 614.277281 349.424001 657.402767 349.424001 657.402767 301.543071 685.775943 301.543071 685.775943 425.707865 657.402767 425.707865 657.402767 377.825373 614.277281 377.825373 614.277281 425.707865 585.90566 425.707865 585.90566 301.543071"></polyline>
                    <polyline id="Fill-18" fill="#75BA4A" points="912.604387 303.7603 912.604387 358.865485 869.522197 316.058247 869.522197 303.7603 841.129717 303.7603 841.129717 425.707865 869.522197 425.707865 869.522197 359.433962 912.604387 402.2412 912.604387 425.707865 941 425.707865 941 303.7603 912.604387 303.7603"></polyline>
                </g>
                <g id="#OWM-Copy" transform="translate(6.000000, 444.000000)" fill="#4A4A4A">
                    <polyline id="Fill-19" points="55.8739496 0.903225806 61.9650821 0.903225806 61.9650821 21.0908505 66.1012881 21.0908505 66.1012881 0.903225806 72.2096362 0.903225806 72.2096362 21.0908505 76.3464799 21.0908505 76.3464799 0.903225806 82.4369748 0.903225806 82.4369748 27.0967742 55.8739496 27.0967742 55.8739496 0.903225806"></polyline>
                    <path d="M38.0122809,5.78001005 C42.6083189,5.78001005 46.3486771,9.46714762 46.3486771,13.9993608 C46.3486771,18.5328524 42.6083189,22.21999 38.0122809,22.21999 C33.4155947,22.21999 29.676533,18.5328524 29.676533,13.9993608 C29.676533,9.46714762 33.4155947,5.78001005 38.0122809,5.78001005 M38.0122809,0 C30.1704937,0 23.8151261,6.26711109 23.8151261,13.9993608 C23.8151261,21.7322497 30.1704937,28 38.0122809,28 C45.8534199,28 52.210084,21.7322497 52.210084,13.9993608 C52.210084,6.26711109 45.8534199,0 38.0122809,0" id="Fill-20"></path>
                    <polyline id="Fill-21" points="87.0168067 0.903225806 91.0815643 0.903225806 98.0718743 7.56022276 105.00722 0.903225806 109 0.903225806 109 27.0967742 102.749748 27.0967742 102.749748 13.1563061 98.7582765 16.9982616 97.2585302 16.9982616 93.2664043 13.1563061 93.2664043 27.0967742 87.0168067 27.0967742 87.0168067 0.903225806"></polyline>
                    <path d="M2.3204887,19.9343761 L0,19.9343761 L0,16.1367228 L2.99187322,16.1367228 L3.75515828,11.7441741 L1.06834381,11.7441741 L1.06834381,7.94590039 L4.427181,7.94590039 L5.18982786,3.61290323 L9.22132597,3.61290323 L8.45740271,7.94590039 L12.8845837,7.94590039 L13.6472306,3.61290323 L17.6780905,3.61290323 L16.9141672,7.94590039 L19.2352941,7.94590039 L19.2352941,11.7441741 L16.2434209,11.7441741 L15.4794976,16.1367228 L18.1663121,16.1367228 L18.1663121,19.9343761 L14.8081131,19.9343761 L14.0148327,24.3870968 L9.98397283,24.3870968 L10.7778914,19.9343761 L6.35134861,19.9343761 L5.55679183,24.3870968 L1.52720832,24.3870968 L2.3204887,19.9343761 Z M11.4492759,16.1367228 L12.212561,11.7441741 L7.78601819,11.7441741 L7.02209493,16.1367228 L11.4492759,16.1367228 Z" id="Fill-22"></path>
                </g>
                <text id="One-World,-One-Futur" font-family="OpenSans-SemiBold, Open Sans" font-size="24" font-weight="500" line-spacing="32" fill="#4A4A4A">
                    <tspan x="389" y="66">One World, </tspan>
                    <tspan x="389" y="98">One Future Together</tspan>
                </text>
            </g>
        </g>
    </g>
</svg>