<svg id="Layer_1" data-name="Layer 1" xmlns="http://www.w3.org/2000/svg" viewBox="0 0 887.2 375.39"><defs><style>.cls-1{fill:#81c9c5;}.cls-2{fill:#82bb32;}.cls-3{fill:#348635;}.cls-4{fill:#fff;}</style></defs><title>logo</title><path class="cls-1" d="M834.86,420a177.57,177.57,0,0,1,43.27,116.33c0,98.33-80,178.33-178.33,178.33a177.56,177.56,0,0,1-116.33-43.28,178,178,0,0,0,135.06,62c98.33,0,178.33-80,178.33-178.33a178,178,0,0,0-62-135.05" transform="translate(-521.47 -358)"/><path class="cls-2" d="M718.53,376.73A177.57,177.57,0,0,1,834.86,420,178,178,0,0,0,699.8,358c-98.33,0-178.33,80-178.33,178.33a178,178,0,0,0,62,135.05A177.56,177.56,0,0,1,540.2,555.06c0-98.33,80-178.33,178.33-178.33" transform="translate(-521.47 -358)"/><path class="cls-3" d="M577.65,536.33A122.08,122.08,0,0,1,795,459.88,122.09,122.09,0,1,1,623.36,631.5a122,122,0,0,1-45.7-95.17m300.48,0A177.56,177.56,0,0,0,834.86,420a177.56,177.56,0,0,0-116.33-43.28c-98.33,0-178.33,80-178.33,178.33a177.56,177.56,0,0,0,43.27,116.33,177.56,177.56,0,0,0,116.33,43.28c98.33,0,178.33-80,178.33-178.33" transform="translate(-521.47 -358)"/><path class="cls-2" d="M718.53,677.21A122.09,122.09,0,0,0,795,459.88,122.06,122.06,0,0,1,623.35,631.5a122,122,0,0,0,95.18,45.71" transform="translate(-521.47 -358)"/><path class="cls-1" d="M718.53,432.9a121.53,121.53,0,0,1,76.45,27A122.09,122.09,0,1,0,623.35,631.5a122.06,122.06,0,0,1,95.18-198.6" transform="translate(-521.47 -358)"/><polygon class="cls-4" points="498.22 76.72 512.53 76.72 512.53 83.01 534.24 104.89 534.24 76.72 548.55 76.72 548.55 139.04 534.24 139.04 534.24 127.05 512.53 105.17 512.53 139.04 498.22 139.04 498.22 76.72"/><polygon class="cls-4" points="677.58 230.99 691.89 230.99 691.89 237.27 713.6 259.15 713.6 230.99 727.91 230.99 727.91 293.31 713.6 293.31 713.6 281.32 691.89 259.44 691.89 293.31 677.58 293.31 677.58 230.99"/><polygon class="cls-4" points="556.94 76.72 607.27 76.72 607.27 91.03 571.25 91.03 571.25 100.75 595.28 100.75 595.28 115.02 571.83 115.02 571.75 124.73 607.27 124.73 607.27 139.04 556.94 139.04 556.94 76.72"/><polygon class="cls-4" points="429.85 152.73 444.16 152.73 444.16 200.82 453.88 200.82 453.88 152.73 468.23 152.73 468.23 200.82 477.94 200.82 477.94 152.73 492.25 152.73 492.25 215.13 429.85 215.13 429.85 152.73"/><path class="cls-4" d="M1103.46,534.75h21.71V525h-21.71Zm-14.31-24h50.33V549h-15.42l15.42,15.47V573h-14.31l-21.71-21.88V573h-14.31Z" transform="translate(-521.47 -358)"/><polygon class="cls-4" points="626.4 152.73 640.71 152.73 640.71 200.82 676.77 200.82 676.77 215.13 626.4 215.13 626.4 152.73"/><path class="cls-4" d="M1221,558.74h21.71V525H1221Zm-14.31-48h38.87L1257,522.18v39.41L1245.55,573h-38.87Z" transform="translate(-521.47 -358)"/><polygon class="cls-4" points="429.85 230.99 480.09 230.99 480.18 245.3 444.16 245.3 444.16 255.02 480.18 255.02 480.18 293.31 429.85 293.31 429.85 279 465.87 279.04 465.87 269.28 429.85 269.28 429.85 230.99"/><polygon class="cls-4" points="488.37 230.99 538.69 230.99 538.69 245.3 520.95 245.3 520.95 293.31 506.69 293.31 506.69 245.3 488.37 245.3 488.37 230.99"/><path class="cls-4" d="M1082.91,613h21.71V603.3h-21.71Zm-14.31-24h50.33v38.29H1103.5l15.42,15.47v8.56h-14.31l-21.71-21.88v21.88H1068.6Z" transform="translate(-521.47 -358)"/><polygon class="cls-4" points="736.24 230.99 786.57 230.99 786.57 245.3 750.55 245.3 750.55 279 772.26 279 772.26 255.02 786.57 255.02 786.57 293.31 736.24 293.31 736.24 230.99"/><path class="cls-4" d="M979.92,433.07a32.81,32.81,0,1,0,32.81,32.81,32.81,32.81,0,0,0-32.81-32.81m0,13.54a19.26,19.26,0,1,1-19.26,19.26,19.28,19.28,0,0,1,19.26-19.26" transform="translate(-521.47 -358)"/><path class="cls-4" d="M1051.44,509.12a32.81,32.81,0,1,0,32.81,32.81,32.81,32.81,0,0,0-32.81-32.81m0,13.54a19.26,19.26,0,1,1-19.26,19.26,19.28,19.28,0,0,1,19.26-19.26" transform="translate(-521.47 -358)"/><path class="cls-4" d="M1159,587.34a32.81,32.81,0,1,0,32.81,32.81A32.81,32.81,0,0,0,1159,587.34m0,13.54a19.26,19.26,0,1,1-19.26,19.26A19.28,19.28,0,0,1,1159,600.89" transform="translate(-521.47 -358)"/><polygon class="cls-4" points="848.2 272.03 844.38 275.87 840.56 272.03 832.19 272.03 832.19 280.41 844.53 293.31 856.58 280.64 856.58 272.03 848.2 272.03"/><polygon class="cls-4" points="817.22 272.03 813.4 275.87 809.58 272.03 801.21 272.03 801.21 280.41 813.55 293.31 825.59 280.64 825.59 272.03 817.22 272.03"/><polygon class="cls-4" points="878.83 272.03 875.01 275.87 871.19 272.03 862.81 272.03 862.81 280.42 875.15 293.31 887.2 280.63 887.2 272.03 878.83 272.03"/><path class="cls-4" d="M1325.88,591.5H1323v-1.61h7.44v1.61h-2.84v7.59h-1.76Zm6.57-1.61h1.88l2.78,4.36,2.78-4.36h1.82v9.2H1340v-6.54l-2.84,4.42H1337l-2.84-4.42v6.54h-1.7Z" transform="translate(-521.47 -358)"/></svg>