<?xml version="1.0" encoding="UTF-8"?>
<svg width="239px" height="102px" viewBox="0 0 239 102" version="1.1" xmlns="http://www.w3.org/2000/svg" xmlns:xlink="http://www.w3.org/1999/xlink">
    <!-- Generator: Sketch 51.3 (57544) - http://www.bohemiancoding.com/sketch -->
    <title>Group 2</title>
    <desc>Created with Sketch.</desc>
    <defs></defs>
    <g id="Page-1" stroke="none" stroke-width="1" fill="none" fill-rule="evenodd">
        <g id="One-World-Strong---Home-page-Copy-4" transform="translate(-135.000000, -22.000000)">
            <g id="Group-2" transform="translate(135.000000, 22.000000)">
                <g id="Group-4">
                    <path d="M84.9430322,16.9411989 C92.2482577,25.3958355 96.6722666,36.3985782 96.6722666,48.4140159 C96.6722666,75.0189708 74.9891476,96.662992 48.3361333,96.662992 C36.2984488,96.662992 25.2750176,92.2469602 16.8051085,84.9532838 C25.6756232,95.2195703 38.7958645,101.729443 53.4117363,101.729443 C80.0639374,101.729443 101.74787,80.0854218 101.74787,53.4804668 C101.74787,38.8923024 95.2270506,25.7957188 84.9430322,16.9411989" id="Fill-1" fill="#73C2B6"></path>
                    <path d="M53.4117363,5.23203183 C65.4494208,5.23203183 76.472581,9.64806366 84.9427612,16.9409284 C76.0722464,6.67464191 62.9520051,0.165580902 48.3361333,0.165580902 C21.6839322,0.165580902 0,21.8096021 0,48.414557 C0,63.0027215 6.52081901,76.0990345 16.8048374,84.9538249 C9.49879883,76.4989178 5.07560299,65.4961751 5.07560299,53.481008 C5.07560299,26.8760531 26.7595352,5.23203183 53.4117363,5.23203183" id="Fill-3" fill="#75B94A"></path>
                </g>
                <path d="M95.6,48.4741987 C95.6,36.4933349 91.2012436,25.5222521 83.9355729,17.0916735 C75.5121929,9.81898433 64.5499388,5.4159292 52.5784964,5.4159292 C26.0735563,5.4159292 4.50943396,26.9984801 4.50943396,53.5260711 C4.50943396,65.5066651 8.90845993,76.4777479 16.1741306,84.9083265 C24.5975106,92.1810157 35.5605733,96.5840708 47.5317462,96.5840708 C74.0366863,96.5840708 95.6,75.0023293 95.6,48.4741987 M14.6053603,48.4741987 C14.6053603,30.3032669 29.3757908,15.5194043 47.5317462,15.5194043 C57.8920993,15.5194043 67.1454181,20.3387277 73.1851837,27.8499011 C80.6899435,33.8956376 85.5051519,43.1560548 85.5051519,53.5260711 C85.5051519,71.6975425 70.7347214,86.4805957 52.5784964,86.4805957 C42.2173347,86.4805957 32.9642855,81.6612723 26.9245198,74.1492896 C19.41976,68.1043624 14.6053603,58.8434056 14.6053603,48.4741987" id="Fill-5" fill="#368240"></path>
                <path d="M52.7299047,86.6548673 C70.8989638,86.6548673 85.6792453,71.8612566 85.6792453,53.6776178 C85.6792453,43.3001956 80.8613709,34.032355 73.3511947,27.9823009 C77.8985171,33.6371172 80.6283132,40.8148409 80.6283132,48.6213276 C80.6283132,66.8057763 65.8469527,81.599387 47.6787029,81.599387 C39.8780138,81.599387 32.7066344,78.8664687 27.0566038,74.3155645 C33.1012679,81.8321021 42.3612651,86.6548673 52.7299047,86.6548673" id="Fill-6" fill="#75B94A"></path>
                <path d="M52.4312556,20.4004361 C60.2317827,20.4004361 67.4027216,23.1325947 73.0528302,27.6846626 C67.0086221,20.1679867 57.7487668,15.3451327 47.3799841,15.3451327 C29.2112137,15.3451327 14.4301887,30.1390157 14.4301887,48.3237991 C14.4301887,58.7006024 19.2481296,67.9678036 26.7576002,74.0176991 C22.2110243,68.3630487 19.4811905,61.1860028 19.4811905,53.3793725 C19.4811905,35.1945891 34.2619457,20.4004361 52.4312556,20.4004361" id="Fill-7" fill="#73C2B6"></path>
                <polyline id="Fill-8" fill="#000000" points="134.381132 20.7610619 138.227506 20.7610619 138.227506 22.4907473 144.063329 28.5114834 144.063329 20.7610619 147.909434 20.7610619 147.909434 37.9115044 144.063329 37.9115044 144.063329 34.6114795 138.227506 28.5907434 138.227506 37.9115044 134.381132 37.9115044 134.381132 20.7610619"></polyline>
                <polyline id="Fill-9" fill="#000000" points="183.083019 62.2831858 186.929317 62.2831858 186.929317 64.0130354 192.765023 70.033385 192.765023 62.2831858 196.611321 62.2831858 196.611321 79.4336283 192.765023 79.4336283 192.765023 76.1327144 186.929317 70.1123648 186.929317 79.4336283 183.083019 79.4336283 183.083019 62.2831858"></polyline>
                <polyline id="Fill-10" fill="#000000" points="150.615094 20.7610619 164.143396 20.7610619 164.143396 24.698745 154.4612 24.698745 154.4612 27.3734963 160.920119 27.3734963 160.920119 31.2998957 154.616302 31.2998957 154.594528 33.9743718 164.143396 33.9743718 164.143396 37.9115044 150.615094 37.9115044 150.615094 20.7610619"></polyline>
                <polyline id="Fill-11" fill="#000000" points="115.441509 41.5221239 119.37082 41.5221239 119.37082 54.7399091 122.039424 54.7399091 122.039424 41.5221239 125.979444 41.5221239 125.979444 54.7399091 128.648322 54.7399091 128.648322 41.5221239 132.577358 41.5221239 132.577358 58.6725664 115.441509 58.6725664 115.441509 41.5221239"></polyline>
                <path d="M153.320755,41.5221239 L166.849057,41.5221239 L166.849057,52.0604504 L162.702961,52.0604504 L166.849057,56.3163447 L166.849057,58.6725664 L163.002951,58.6725664 L157.167129,52.6521201 L157.167129,58.6725664 L153.320755,58.6725664 L153.320755,41.5221239 Z M157.167129,48.1342399 L163.002951,48.1342399 L163.002951,45.4598926 L157.167129,45.4598926 L157.167129,48.1342399 Z" id="Fill-12" fill="#000000"></path>
                <polyline id="Fill-13" fill="#000000" points="168.65283 41.5221239 172.495805 41.5221239 172.495805 54.7399091 182.181132 54.7399091 182.181132 58.6725664 168.65283 58.6725664 168.65283 41.5221239"></polyline>
                <path d="M184.886792,41.5221239 L195.335691,41.5221239 L198.415094,44.6747605 L198.415094,55.5199297 L195.335691,58.6725664 L184.886792,58.6725664 L184.886792,41.5221239 Z M188.73309,54.7339721 L194.568797,54.7339721 L194.568797,45.459067 L188.73309,45.459067 L188.73309,54.7339721 Z" id="Fill-14" fill="#000000"></path>
                <polyline id="Fill-15" fill="#000000" points="115.441509 62.2831858 128.947231 62.2831858 128.969811 66.2208913 119.287884 66.2208913 119.287884 68.8954709 128.969811 68.8954709 128.969811 79.4336283 115.441509 79.4336283 115.441509 75.4959228 125.123437 75.5066553 125.123437 72.8213432 115.441509 72.8213432 115.441509 62.2831858"></polyline>
                <polyline id="Fill-16" fill="#000000" points="131.675472 62.2831858 145.203774 62.2831858 145.203774 66.2208913 140.43485 66.2208913 140.43485 79.4336283 136.599766 79.4336283 136.599766 66.2208913 131.675472 66.2208913 131.675472 62.2831858"></polyline>
                <path d="M147.909434,62.2831858 L161.437736,62.2831858 L161.437736,72.8213432 L157.291641,72.8213432 L161.437736,77.0774445 L161.437736,79.4336283 L157.591631,79.4336283 L151.755808,73.4132787 L151.755808,79.4336283 L147.909434,79.4336283 L147.909434,62.2831858 Z M151.755808,68.8954709 L157.591631,68.8954709 L157.591631,66.2208913 L151.755808,66.2208913 L151.755808,68.8954709 Z" id="Fill-17" fill="#000000"></path>
                <polyline id="Fill-18" fill="#000000" points="198.415094 62.2831858 211.943396 62.2831858 211.943396 66.2208913 202.2612 66.2208913 202.2612 75.4959228 208.096753 75.4959228 208.096753 68.8954709 211.943396 68.8954709 211.943396 79.4336283 198.415094 79.4336283 198.415094 62.2831858"></polyline>
                <path d="M123.558628,24.4875708 C126.478822,24.4875708 128.85385,26.8653387 128.85385,29.7870603 C128.85385,32.7096074 126.478822,35.0876505 123.558628,35.0876505 C120.638159,35.0876505 118.262581,32.7096074 118.262581,29.7870603 C118.262581,26.8653387 120.638159,24.4875708 123.558628,24.4875708 M123.558628,20.7610619 C118.577639,20.7610619 114.539623,24.8020569 114.539623,29.7870603 C114.539623,34.7728892 118.577639,38.8141593 123.558628,38.8141593 C128.539617,38.8141593 132.577358,34.7728892 132.577358,29.7870603 C132.577358,24.8020569 128.539617,20.7610619 123.558628,20.7610619" id="Fill-19" fill="#000000"></path>
                <path d="M143.4,44.346253 C146.320149,44.346253 148.695417,46.724021 148.695417,49.6457426 C148.695417,52.5682896 146.320149,54.9460575 143.4,54.9460575 C140.479851,54.9460575 138.104583,52.5682896 138.104583,49.6457426 C138.104583,46.724021 140.479851,44.346253 143.4,44.346253 M143.4,40.619469 C138.419086,40.619469 134.381132,44.6607391 134.381132,49.6457426 C134.381132,54.6315715 138.419086,58.6725664 143.4,58.6725664 C148.380914,58.6725664 152.418868,54.6315715 152.418868,49.6457426 C152.418868,44.6607391 148.380914,40.619469 143.4,40.619469" id="Fill-20" fill="#000000"></path>
                <path d="M172.260652,66.0099698 C175.180527,66.0099698 177.555519,68.3874626 177.555519,71.3091842 C177.555519,74.2320064 175.180527,76.6094992 172.260652,76.6094992 C169.340503,76.6094992 166.965236,74.2320064 166.965236,71.3091842 C166.965236,68.3874626 169.340503,66.0099698 172.260652,66.0099698 M172.260652,62.2831858 C167.279739,62.2831858 163.241509,66.3241808 163.241509,71.3091842 C163.241509,76.2952883 167.279739,80.3362832 172.260652,80.3362832 C177.241291,80.3362832 181.279245,76.2952883 181.279245,71.3091842 C181.279245,66.3241808 177.241291,62.2831858 172.260652,62.2831858" id="Fill-21" fill="#000000"></path>
                <polyline id="Fill-23" fill="#000000" points="220.598987 74.0176991 219.609305 74.9952393 218.62014 74.0176991 216.45283 74.0176991 216.45283 76.150977 219.647359 79.4336283 222.766038 76.2077456 222.766038 74.0176991 220.598987 74.0176991"></polyline>
                <polyline id="Fill-25" fill="#000000" points="236.832521 74.0176991 235.842878 74.9952393 234.85479 74.0176991 232.686792 74.0176991 232.686792 76.1517407 235.881191 79.4336283 239 76.2077456 239 74.0176991 236.832521 74.0176991"></polyline>
                <polyline id="Fill-22" fill="#000000" points="228.715451 74.0176991 227.725768 74.9952393 226.736862 74.0176991 224.569811 74.0176991 224.569811 76.150977 227.76434 79.4336283 230.883019 76.2077456 230.883019 74.0176991 228.715451 74.0176991"></polyline>
                <path d="M219.179932,63.1858407 L219.725236,63.1858407 L220.530734,64.4693659 L221.335652,63.1858407 L221.864151,63.1858407 L221.864151,65.8938053 L221.370132,65.8938053 L221.370132,63.9686646 L220.548119,65.2698408 L220.495964,65.2698408 L219.673082,63.9686646 L219.673082,65.8938053 L219.179932,65.8938053 L219.179932,63.1858407 Z M217.275133,63.660948 L216.45283,63.660948 L216.45283,63.1858407 L218.60855,63.1858407 L218.60855,63.660948 L217.785378,63.660948 L217.785378,65.8938053 L217.275133,65.8938053 L217.275133,63.660948 Z" id="Fill-27" fill="#000000"></path>
            </g>
        </g>
    </g>
</svg>