<?xml version="1.0" standalone="no"?>
<!DOCTYPE svg PUBLIC "-//W3C//DTD SVG 20010904//EN"
 "http://www.w3.org/TR/2001/REC-SVG-20010904/DTD/svg10.dtd">
<svg version="1.0" xmlns="http://www.w3.org/2000/svg"
 width="700.000000pt" height="700.000000pt" viewBox="0 0 700.000000 700.000000"
 preserveAspectRatio="xMidYMid meet">
<metadata>
Created by potrace 1.11, written by Peter Selinger 2001-2013
</metadata>
<g transform="translate(0.000000,700.000000) scale(0.100000,-0.100000)"
fill="#000000" stroke="none">
<path d="M3128 6985 c-2 -2 -43 -6 -93 -10 -49 -3 -97 -8 -105 -10 -8 -2 -42
-7 -75 -10 -33 -3 -78 -10 -100 -15 -22 -5 -56 -11 -76 -14 -126 -19 -384 -96
-622 -186 -154 -58 -473 -233 -637 -349 -62 -43 -189 -140 -200 -151 -3 -3
-32 -27 -65 -55 -70 -58 -270 -256 -338 -335 -25 -30 -56 -66 -68 -80 -52 -61
-190 -253 -241 -335 -108 -173 -160 -275 -263 -510 -37 -85 -106 -287 -131
-384 -11 -42 -44 -189 -49 -216 -52 -283 -60 -368 -59 -640 0 -259 17 -466 54
-628 5 -23 11 -55 14 -72 11 -58 15 -76 41 -171 133 -488 389 -958 727 -1335
50 -56 103 -114 118 -128 14 -14 53 -60 87 -101 62 -77 71 -86 158 -155 28
-22 91 -79 140 -126 217 -208 389 -341 630 -486 320 -191 760 -357 1090 -409
22 -3 42 -7 45 -9 3 -2 37 -6 75 -10 39 -4 73 -9 77 -11 30 -18 545 -26 708
-11 91 8 105 10 250 33 306 50 682 174 945 311 49 26 245 139 308 178 275 170
634 506 850 796 114 151 224 331 307 499 28 58 56 113 62 124 21 39 117 295
146 391 51 165 103 405 116 540 4 33 8 74 11 90 28 195 20 561 -20 822 -26
172 -58 316 -115 508 -44 148 -169 439 -249 580 -18 33 -45 80 -59 105 -57
101 -186 287 -275 395 -143 173 -387 423 -387 396 0 -5 4 -12 9 -16 17 -10
138 -171 209 -278 219 -326 377 -689 468 -1072 26 -113 52 -256 60 -330 2 -27
6 -59 9 -70 22 -107 22 -541 0 -715 -2 -19 -7 -57 -11 -85 -52 -426 -234 -933
-462 -1290 -14 -22 -37 -58 -51 -80 -163 -256 -435 -555 -691 -761 -121 -97
-289 -215 -376 -265 -168 -96 -340 -181 -464 -231 -132 -53 -375 -130 -483
-153 -10 -2 -26 -6 -35 -9 -22 -7 -94 -20 -162 -31 -19 -2 -46 -7 -59 -10 -13
-2 -49 -7 -80 -10 -31 -4 -63 -8 -71 -10 -25 -6 -255 -18 -250 -12 3 2 50 8
105 11 132 10 156 13 388 52 131 22 436 116 612 188 101 42 324 153 385 191
22 14 42 25 44 25 10 0 265 175 331 228 407 323 717 704 939 1157 84 170 191
448 212 549 2 10 8 33 13 50 6 17 12 42 15 56 2 14 9 45 16 70 7 25 14 56 16
70 3 14 9 50 15 80 5 30 12 75 15 100 3 25 7 55 10 67 19 92 26 525 11 698
-27 319 -107 652 -230 950 -60 147 -194 411 -244 482 -13 17 -23 33 -23 36 0
7 -133 200 -174 252 -17 22 -38 49 -46 60 -136 178 -579 472 -935 620 -49 20
-99 41 -110 46 -37 16 -139 52 -170 60 -16 4 -70 19 -120 34 -49 15 -98 29
-107 31 -50 11 -70 15 -148 30 -47 9 -92 17 -100 19 -23 4 -122 18 -145 21
-155 15 -234 19 -425 19 -124 0 -193 2 -155 6 102 8 448 7 535 -2 154 -16 185
-20 200 -24 8 -2 33 -6 55 -10 68 -9 196 -36 290 -60 436 -113 865 -324 1202
-592 51 -40 95 -73 99 -73 10 0 -190 204 -266 271 -279 244 -557 423 -876 566
-150 68 -409 155 -554 188 -8 2 -36 8 -63 14 -26 6 -64 14 -85 17 -20 3 -39 7
-42 9 -6 4 -209 31 -300 40 -66 7 -476 15 -482 10z m206 -363 c3 -5 -1 -9 -9
-9 -8 0 -12 4 -9 9 3 4 7 8 9 8 2 0 6 -4 9 -8z m-117 -18 c-3 -3 -12 -4 -19
-1 -8 3 -5 6 6 6 11 1 17 -2 13 -5z m703 -1029 c183 -28 352 -73 511 -135 127
-50 354 -173 452 -244 12 -9 37 -27 56 -41 19 -13 38 -22 43 -19 5 3 7 1 6 -3
-2 -5 13 -25 32 -44 72 -72 169 -218 263 -399 107 -205 200 -491 222 -687 3
-26 8 -61 11 -78 13 -71 19 -359 9 -450 -2 -22 -7 -62 -9 -89 -13 -123 -51
-292 -96 -426 -114 -346 -294 -636 -554 -895 -332 -331 -721 -537 -1178 -626
-241 -46 -544 -48 -813 -3 -201 34 -453 121 -653 226 -146 76 -392 246 -392
270 0 5 -5 6 -12 2 -6 -4 -8 -3 -5 3 3 5 -14 35 -39 66 -24 31 -44 61 -44 66
0 5 -3 11 -7 13 -22 9 -162 265 -204 371 -11 28 -27 66 -34 82 -17 37 -83 254
-90 298 -3 17 -8 39 -10 47 -11 39 -34 202 -40 280 -5 72 -6 305 -1 360 5 48
16 142 20 160 1 8 6 38 10 65 13 84 65 273 103 374 260 702 859 1236 1588
1417 17 4 35 8 40 10 6 1 26 5 45 8 19 4 46 8 60 11 63 12 89 15 150 21 36 4
67 8 69 10 11 9 402 -7 491 -21z m-510 -5199 c0 -2 -9 -6 -20 -9 -11 -3 -18
-1 -14 4 5 9 34 13 34 5z"/>
</g>
</svg>
